# xmcd CD database file
#
# Track frame offsets:
#	150
#	16537
#	36763
#	54225
#	77942
#	91958
#	108863
#	127636
#	144685
#	163029
#	178120
#
# Disc length: 2626 seconds
#
# Revision: 0
# Processed by: cddbd v1.4PL0 Copyright (c) Steve Scherf et al.
# Submitted via: CDex 1.51
#
DISCID=7d0a400b
DTITLE=Monica Starck - Desert Flower
DYEAR=2004
DGENRE=Jazz
TTITLE0=Stay The Distance
TTITLE1=Desert Flower
TTITLE2=Tack A Good Look
TTITLE3=A Day In September
TTITLE4=Joni Mitchell Record
TTITLE5=I'll Do Anything For You
TTITLE6=Time To Go Home
TTITLE7=Like It Or Not
TTITLE8=Natrual Beauty
TTITLE9=Castle Of Sand
TTITLE10=Selfsufficiant
EXTD=YEAR: 2004
EXTT0=
EXTT1=
EXTT2=
EXTT3=
EXTT4=
EXTT5=
EXTT6=
EXTT7=
EXTT8=
EXTT9=
EXTT10=
PLAYORDER=
